<svg class="bg-blue-200" pointer-events="none" viewBox="0 0 1232 971"><path d="M 0,0 L 1232,0 z 
M 0,20.598756 L 1232,20.598756 z 
M 0,41.197512 L 1232,41.197512 z 
M 0,61.796268000000005 L 1232,61.796268000000005 z 
M 0,82.395024 L 1232,82.395024 z 
M 0,102.99378000000002 L 1232,102.99378000000002 z 
M 0,123.59253600000001 L 1232,123.59253600000001 z 
M 0,144.191292 L 1232,144.191292 z 
M 0,164.790048 L 1232,164.790048 z 
M 0,185.38880400000002 L 1232,185.38880400000002 z 
M 0,205.98756000000003 L 1232,205.98756000000003 z 
M 0,226.586316 L 1232,226.586316 z 
M 0,247.18507200000002 L 1232,247.18507200000002 z 
M 0,267.783828 L 1232,267.783828 z 
M 0,288.382584 L 1232,288.382584 z 
M 0,308.98134000000005 L 1232,308.98134000000005 z 
M 0,329.580096 L 1232,329.580096 z 
M 0,350.178852 L 1232,350.178852 z 
M 0,370.77760800000004 L 1232,370.77760800000004 z 
M 0,391.376364 L 1232,391.376364 z 
M 0,411.97512000000006 L 1232,411.97512000000006 z 
M 0,432.57387600000004 L 1232,432.57387600000004 z 
M 0,453.172632 L 1232,453.172632 z 
M 0,473.77138800000006 L 1232,473.77138800000006 z 
M 0,494.37014400000004 L 1232,494.37014400000004 z 
M 0,514.9689000000001 L 1232,514.9689000000001 z 
M 0,535.567656 L 1232,535.567656 z 
M 0,556.166412 L 1232,556.166412 z 
M 0,576.765168 L 1232,576.765168 z 
M 0,597.363924 L 1232,597.363924 z 
M 0,617.9626800000001 L 1232,617.9626800000001 z 
M 0,638.5614360000001 L 1232,638.5614360000001 z 
M 0,659.160192 L 1232,659.160192 z 
M 0,679.758948 L 1232,679.758948 z 
M 0,700.357704 L 1232,700.357704 z 
M 0,720.9564600000001 L 1232,720.9564600000001 z 
M 0,741.5552160000001 L 1232,741.5552160000001 z 
M 0,762.1539720000001 L 1232,762.1539720000001 z 
M 0,782.752728 L 1232,782.752728 z 
M 0,803.351484 L 1232,803.351484 z 
M 0,823.9502400000001 L 1232,823.9502400000001 z 
M 0,844.5489960000001 L 1232,844.5489960000001 z 
M 0,865.1477520000001 L 1232,865.1477520000001 z 
M 0,885.7465080000001 L 1232,885.7465080000001 z 
M 0,906.345264 L 1232,906.345264 z 
M 0,926.94402 L 1232,926.94402 z 
M 0,947.5427760000001 L 1232,947.5427760000001 z 
M 0,968.1415320000001 L 1232,968.1415320000001 z 
M 0,988.7402880000001 L 1232,988.7402880000001 z 
" stroke="black" stroke-linecap="round" stroke-linejoin="round" stroke-opacity="0.1" stroke-width="1"></path><path d="M 0,0 L 0,971 z 
M 20.598756,0 L 20.598756,971 z 
M 41.197512,0 L 41.197512,971 z 
M 61.796268000000005,0 L 61.796268000000005,971 z 
M 82.395024,0 L 82.395024,971 z 
M 102.99378000000002,0 L 102.99378000000002,971 z 
M 123.59253600000001,0 L 123.59253600000001,971 z 
M 144.191292,0 L 144.191292,971 z 
M 164.790048,0 L 164.790048,971 z 
M 185.38880400000002,0 L 185.38880400000002,971 z 
M 205.98756000000003,0 L 205.98756000000003,971 z 
M 226.586316,0 L 226.586316,971 z 
M 247.18507200000002,0 L 247.18507200000002,971 z 
M 267.783828,0 L 267.783828,971 z 
M 288.382584,0 L 288.382584,971 z 
M 308.98134000000005,0 L 308.98134000000005,971 z 
M 329.580096,0 L 329.580096,971 z 
M 350.178852,0 L 350.178852,971 z 
M 370.77760800000004,0 L 370.77760800000004,971 z 
M 391.376364,0 L 391.376364,971 z 
M 411.97512000000006,0 L 411.97512000000006,971 z 
M 432.57387600000004,0 L 432.57387600000004,971 z 
M 453.172632,0 L 453.172632,971 z 
M 473.77138800000006,0 L 473.77138800000006,971 z 
M 494.37014400000004,0 L 494.37014400000004,971 z 
M 514.9689000000001,0 L 514.9689000000001,971 z 
M 535.567656,0 L 535.567656,971 z 
M 556.166412,0 L 556.166412,971 z 
M 576.765168,0 L 576.765168,971 z 
M 597.363924,0 L 597.363924,971 z 
M 617.9626800000001,0 L 617.9626800000001,971 z 
M 638.5614360000001,0 L 638.5614360000001,971 z 
M 659.160192,0 L 659.160192,971 z 
M 679.758948,0 L 679.758948,971 z 
M 700.357704,0 L 700.357704,971 z 
M 720.9564600000001,0 L 720.9564600000001,971 z 
M 741.5552160000001,0 L 741.5552160000001,971 z 
M 762.1539720000001,0 L 762.1539720000001,971 z 
M 782.752728,0 L 782.752728,971 z 
M 803.351484,0 L 803.351484,971 z 
M 823.9502400000001,0 L 823.9502400000001,971 z 
M 844.5489960000001,0 L 844.5489960000001,971 z 
M 865.1477520000001,0 L 865.1477520000001,971 z 
M 885.7465080000001,0 L 885.7465080000001,971 z 
M 906.345264,0 L 906.345264,971 z 
M 926.94402,0 L 926.94402,971 z 
M 947.5427760000001,0 L 947.5427760000001,971 z 
M 968.1415320000001,0 L 968.1415320000001,971 z 
M 988.7402880000001,0 L 988.7402880000001,971 z 
M 1009.3390440000001,0 L 1009.3390440000001,971 z 
M 1029.9378000000002,0 L 1029.9378000000002,971 z 
M 1050.536556,0 L 1050.536556,971 z 
M 1071.135312,0 L 1071.135312,971 z 
M 1091.734068,0 L 1091.734068,971 z 
M 1112.332824,0 L 1112.332824,971 z 
M 1132.9315800000002,0 L 1132.9315800000002,971 z 
M 1153.530336,0 L 1153.530336,971 z 
M 1174.1290920000001,0 L 1174.1290920000001,971 z 
M 1194.727848,0 L 1194.727848,971 z 
M 1215.326604,0 L 1215.326604,971 z 
M 1235.9253600000002,0 L 1235.9253600000002,971 z 
" stroke="black" stroke-linecap="round" stroke-linejoin="round" stroke-opacity="0.1" stroke-width="1"></path><path class="leaflet-interactive" d="m272 506.1666666666666 L 324 238.16666666666657 L 1076 114.16666666666657 L 1072 490.1666666666666 L 820 670.1666666666667  L 132 894.1666666666667z" fill="#3388ff" fill-opacity="0.2" fill-rule="evenodd" stroke="#3388ff" stroke-linecap="round" stroke-linejoin="round" stroke-opacity="1" stroke-width="3"></path><path class="leaflet-interactive" d="M 836.0365452 317.461507, L 836.0365452 698.538493, L 1383.9634548 698.538493, L 1383.9634548 317.461507z" fill="#3388ff" fill-opacity="0.2" fill-rule="evenodd" stroke="red" stroke-linecap="round" stroke-linejoin="round" stroke-opacity="1" stroke-width="3" style="transform: rotate(0deg); transform-origin: center center;"></path></svg>